<svg xmlns="http://www.w3.org/2000/svg" xmlns:xlink="http://www.w3.org/1999/xlink" width="36.456" height="34.937" viewBox="0 0 36.456 34.937"><defs><linearGradient id="a" x1="0.5" x2="0.5" y2="1" gradientUnits="objectBoundingBox"><stop offset="0" stop-color="#882e22"/><stop offset="1" stop-color="#441711"/></linearGradient></defs><g transform="translate(-1426.783 -225.064)"><path d="M19.165-.5h0A2.612,2.612,0,0,1,21.52.958L25.732,9.5l9.423,1.374a2.622,2.622,0,0,1,1.45,4.472l-6.817,6.643L31.4,31.369a2.563,2.563,0,0,1-.569,2.119,2.638,2.638,0,0,1-2.018.945,2.585,2.585,0,0,1-1.214-.3L19.17,29.7,10.74,34.13a2.575,2.575,0,0,1-1.216.306,2.634,2.634,0,0,1-2.014-.944,2.567,2.567,0,0,1-.57-2.122l1.612-9.384L1.735,15.343a2.622,2.622,0,0,1,1.45-4.472L12.608,9.5,16.819.958A2.6,2.6,0,0,1,19.165-.5Zm9.648,33.934a1.662,1.662,0,0,0,1.253-.59,1.578,1.578,0,0,0,.348-1.305l-1.7-9.9,7.194-7.01a1.622,1.622,0,0,0-.9-2.766l-9.943-1.45L20.624,1.4A1.6,1.6,0,0,0,19.165.5h0a1.586,1.586,0,0,0-1.449.9l-4.444,9.01-9.943,1.45a1.622,1.622,0,0,0-.9,2.766l7.194,7.01-1.7,9.9a1.582,1.582,0,0,0,.349,1.308,1.658,1.658,0,0,0,1.25.589,1.587,1.587,0,0,0,.75-.19l8.9-4.676,8.895,4.675A1.6,1.6,0,0,0,28.813,33.433Z" transform="translate(1425.842 225.564)" fill="#632118"/><path d="M17.268,1.18,12.94,9.954,3.257,11.366a2.122,2.122,0,0,0-1.173,3.619l7.005,6.826L7.433,31.454C7.134,33.2,18.041-.387,17.268,1.18Z" transform="translate(1425.842 225.564)" fill="url(#a)"/></g></svg>